<svg width="525" height="207" viewBox="0 0 525 207" fill="none" xmlns="http://www.w3.org/2000/svg">
<g clip-path="url(#clip0_286_397)">
<path d="M286.916 104.074L287.727 103.416L426.078 78.3419C433.59 78.8175 439.128 78.4818 445.621 74.5371L511.793 62.6539C511.703 74.1384 506.179 86.637 498.195 94.7573C497.301 95.6665 492.173 99.2755 492.374 100.143C507.828 106.759 519.61 118.663 523.325 135.575C531.232 171.609 509.644 199.789 473.696 202.37L286.923 202.349V104.074H286.916ZM355.887 155.292H451.325C451.609 155.292 455.012 153.061 455.469 152.613C460.466 147.759 461.118 139.408 457.112 133.764C456.169 132.442 452.302 128.819 450.84 128.819H355.887V155.285V155.292Z" fill="white"/>
<path d="M169.143 70.007C165.594 64.9292 162.226 60.6418 156.765 57.5014C140.499 48.1362 97.1915 48.1781 80.9813 57.5014C75.3053 60.7677 68.5759 69.2936 75.6865 74.6232C80.6556 78.3511 93.858 79.687 100.178 80.2954C136.376 83.7785 193.953 81.0788 223.934 103.432C225.41 104.53 228.46 106.775 229.375 108.237C229.589 108.58 229.929 109.077 229.361 109.223C227.961 109.209 226.686 109.783 225.348 110.077C193.69 116.987 161.18 121.323 129.307 126.912C94.8351 123.631 27.2917 125.786 6.18177 92.3324C-3.52076 76.9592 -0.838706 53.2 8.23316 38.0156C30.9856 -0.0467984 98.8409 -1.1309 137.575 0.40083C179.448 2.05146 226.36 7.93357 238.696 55.6899C239.618 59.2499 241.087 64.8243 241.232 68.3704C241.253 68.9369 241.052 70.007 240.532 70.007H169.136H169.143Z" fill="#181818"/>
<path d="M329.17 77.8453C329.649 77.6844 330.224 78.3349 330.383 78.3349H396.194C396.277 79.0693 394.891 79.0693 394.351 79.1672C350.557 87.4763 306.543 94.6313 262.819 103.283L259.714 102.598V6.52555L261.391 5.76318H435.794C446.467 7.14803 457.07 10.1555 465.81 16.6531C480.079 27.2633 486.885 44.3921 484.854 62.1713L417.803 74.8798L417.318 73.9216C421.379 68.515 421.427 61.7796 417.068 56.527C416.299 55.5968 412.924 52.8411 411.981 52.8411H329.898L329.17 53.5755V77.8383V77.8453Z" fill="#181818"/>
<path d="M29.501 150.893L100.343 138.219C104.474 146.64 113.691 151.557 122.444 153.9C137.774 158.006 179.44 158.188 191.485 146.472C194.624 143.416 197.486 137.163 193.626 133.533C187.992 128.231 170.389 128.287 162.821 127.364C161.934 127.252 162.038 127.518 162.1 126.385L256.596 109.2C257.552 109.095 257.933 109.62 258.536 110.186C268.412 119.447 269.292 138.66 266.956 151.081C255.875 209.938 163.008 209.056 118.14 205.797C98.479 204.37 79.372 202.104 61.6233 192.746C45.3577 184.171 33.5622 169.022 29.5079 150.907L29.501 150.893Z" fill="white"/>
<path d="M71.7539 137.156C71.0748 138.422 68.8155 138.688 67.4918 138.982C48.3847 143.248 25.1957 147.5 5.81835 150.263C4.67484 150.424 3.48281 150.508 2.34623 150.333C2.08981 148.116 1.22351 145.871 0.897782 143.71C0.745313 142.723 -0.148705 137.149 1.0849 137.149H71.7539V137.156Z" fill="#181818"/>
</g>
<defs>
<clipPath id="clip0_286_397">
<rect width="524.893" height="207" fill="white" transform="translate(0.0537109)"/>
</clipPath>
</defs>
</svg>
