<svg xmlns="http://www.w3.org/2000/svg" width="439" height="271" fill="none"><path fill="#71B3B0" d="M325.2 132.533c2.446-.521 4.65-2.003 6.073-2.15 1.675-.168 3.741 1.259 5.61 1.373 1.319.09 2.374-1.812 3.494-1.49 12.1 3.589 20.602 24.699 11.613 34.884-5.735 6.495-21.372 5.44-29.129 7.597-4.572 1.281-28.454 10.669-21.626 17.956 1.191 1.275 14.749.082 17.204-.262 3.12-.443 5.626-3.151 8.354-3.257 3.202-.134 5.75 2.184 8.098 2.125 1.009-.02 2.265-2.203 4.6-1.94 4.873.552 15.505 6.105 19.366 9.397 5.109 4.346 4.72 9.143 8.266 13.581-1.571 3.312-4.347 16.651-3.809 19.975-6.573 4.704-10.311 12.43-16.588 17.581-10.026 8.224-30.773 13.82-42.425 7.434-8.404-4.603-13.274-12.415-20.959-17.646-.938 3.227.637 8.867 2.991 10.95l-11.267 7.397c-3.049 1.766-6.466-.493-8.795-.514-14.889-4.645-9.838-25.322-16.48-33.68-7.464-9.391-21.644-9.512-25.951-22.147-.788-4.124 14.237-10.293 17.996-15.104 8.484-10.899 6.437-26.735-8.845-28.37-2.774-.299-3.148 2.245-3.434 2.313-.446.109-2.305-1.373-4.107-.437-6.018 3.102-11.919 9.831-13.495 16.653-1.265 5.435 2.07 17.931 8.797 19.336-3.404 1.606 1.552 13.367 2.794 14.548-.177 11.038 2.878 38.575-7.903 45.284-1.633 1.008-14.244 2.903-17.04 3.119-17.898-15.161.692-39.224 1.97-56.637 1.112-14.957-10.306-39.399-2.502-53.613 2.897-5.283 9.423-6.994 12.274-12.311 9.648-2.186 5.781-.826 13.185-.164 2.478.222 4.616-1.214 6.77-.75 8.785 1.882 29.583 12.807 31.5 22.342.614 3.021-1.689 5.014-1.533 6.921.09 1.243 2.059 2.746 2.089 4.664.201 13.291-7.671 18.582-16.204 26.485 5.452 4.811 13.45 5.547 18.994 9.268 5.912 3.962 8.434 10.319 12.47 15.471 2.047 2.617 2.208-1.997 4.71-1.952-4.06 5.973-4.04 7.005.041 12.963 2.068-8.426 7.054-12.459 12.215-18.802 25.648-.391 18.141 16.508 32.686 22.603 11.714 4.892 17.832-19.861 5.667-28.267-2.372-1.649-9.663-5.768-11.254-.846-9.603-4.156-27.277 1.334-35.127-1.827 1.658-5.772-3.571-9.882-2.575-16.391 1.765-11.741 12.04-27.827 20.001-36.382 6.676-7.179 14.718-10.498 21.297-17.246zM103.116 249.882c-.083-.278 1.961-2.104.659-3.353-1.816-1.754-5.264-2.5-7.549-4.726-11.373-11.188-8.241-30.775.655-42.477 3.631-4.784 9.993-6.325 12.585-11.074 3.492-6.352-2.776-10.845-4.278-17.464-2.726-12.033 3.063-20.217 11.681-27.52 3.802-3.215 8.978-5.758 13.811-6.882 2.385-.556 3.278 2.188 5.03 2.087 1.877-.095 3.981-2.611 6.198-2.916 15.441-2.174 36.03 2.076 48.718 11.551-1.328 3.548.687 7.307-3.461 12.777-4.149 5.47-9.705 5.452-15.775 5.654l-16.283-7.459c-3.11 1.699-3.691.16-7.355 1.175-5.988 1.638-15.752 3.223-12.402 12.37 4.411 12.011 24.192 3.168 33.177 2.531 6.473-.441 21.796-.898 19.482 9.644-2.123 9.76-18.961 15.979-28.295 17.438-12.25 1.912-27.06-4.629-31.87 10.279-1.392 4.318 4.804 10.531 8.726 11.62.995.285 3.051-2.201 4.612-3.002-.32.871-1.648 2.504-1.534 2.799 1.894 4.784 13.083-6.4 15.174-7.854 2.238-1.544 5.211-4.505 7.622-4.931 5.598-.979 20.049 1.328 24.753 5.189-1.662 5.111.39 15.941-4.592 21.374-.329.356-8.171 4.151-8.617 4.292-6.329 1.881-15.173.254-21.552 1.456-3.316.628-5.534 2.833-8.313 3.404-8.178 1.671-19.409.294-25.023 7.696m-11.789-3.108 5.564 1.37zM242.875 46.123c-4.381-1.415-10.785-5.656-14.924-6.835-2.053-.59-1.878 1.995-2.458 2.323-6.176 3.498-7.179-4.532-12.46 3.158-8.432 12.303 3.414 13.658 12.994 13.482 2.789-.055 12.002-1.262 15.69-1.729 1.899-.239 3.649-2.561 4.392-2.625.742-.064 11.321 6.758 13.397 7.574 1.949 5.72-12.739 15.897-17.58 17.215-6.816 1.86-31.539.826-34.803 3.983-6.465 6.255-2.802 15.077 6.358 16.653 9.16 1.577 8.954-1.395 14.407-6.454 6.437-5.965 3.272-2.561 8.305-3.194 1.409-.18 2.423-1.843 4.747-1.709 5.906.323 12.396 2.137 17.188 5.76-.239 2.727 2.058 8.028.84 11.565s-9.533 11.884-12.784 12.466c-1.587.285-4.317-1.445-6.656-1.241-21.43 1.944-33.309 8.943-55.405 6.479-16.831-7.547-20.923-28.706-10.085-43.56 3.491-4.806 12.304-8.494 13.96-12.35 1.971-4.583-3.891-10.507-5.05-15.178-1.658-6.674-.061-14.751 4.577-19.894.825-.914 2.888.207 3.724-.578 2.13-2 3.93-5.14 5.513-6.472 10.066-8.447 8.431-2.45 15.754-3.626 2.535-.404 3.871-3.727 5.224-4.102 1.482-.419 28.466 3.387 30.601 4.301 4.547 1.954 14.72 6.795 13.386 12.726-2.376 10.539-9.236 14.956-18.82 11.848zM352.848 30.246c1.004.85 2.847 3.844 2.554 5.184-.565 2.6-7.494 11.715-9.805 12.757-3.321 1.497-9.283-1.275-12.572-1.677-7.253-4.648-9.125-6.582-17.383-4.512-12.792 3.224-14.705 14.362-.513 17.222 8.283-2.697 31.054-7.352 37.625-1.445 1.108.998-.257 9.182-1.507 10.85-3.531 4.627-17.218 9.277-23.015 10.119-9.252 1.366-24.403-2.662-27.371 6.965-2.549 8.277 1.72 9.736 7.822 11.403 1.105.306 2.366 2.149 3.949 1.944.886-.106 9.738-6.24 10.458-8.397 2.906-.968 8.406-4.109 8.897-4.2.699-.13 13.316.857 14.029 1.13 9.797 3.648 5.223 19.323-1.502 24.664-3.143 2.503-15.908 1.671-21.222 2.614-11.07 1.947-34.444 9.715-44.41 6.719-2.55-.772-4.283-3.778-5.062-3.957-8.672-11.022-11.984-25.223-3.932-37.848 3.285-5.154 12.159-8.79 13.849-12.693 2.788-6.431-9.802-15.242-2.203-29.062 1.226-2.217 5.468-7.666 7.282-9.648 2.639-2.88 7.635-5.623 11.534-6.257 4.85-.787 20.191-2.063 24.978-1.709 9.229.694 20.263 3.769 27.487 9.865zM106.586 67.096c-.323 13.768 3.981 17.789-3.752 32.939-8.692 17.009-35.952 29.646-53.162 20.988-8.542-4.303-15.942-10.326-18.812-20.048-2.939-9.934.454-12.748 6.206-20.048 1.346-1.712 6.109-1.15.707-3.752 3.885-.281 13.363 1.97 16.679 4.014 6.938 4.28 6.476 11.957 14.713 16.036 4.148 2.066 3.44-2.844 5.16-4.46-.562 4.05-1.362 5.882 3.141 7.368 8.15-11.204 7.512-25.707-7.722-28.499-3.437-.633-10.148-2.054-12.722-2.247-7.846-.601-10.641 1.483-20.254-.194-11.638-5.195-7.54-17.413-3.321-26.808C41.69 24.036 54.307 11.45 71.775 2.586c.349-.049 1.061-2.787 4.453-2.574 15.28.942 28.677 16.438 21.109 31.402-5.663 11.2-43.678 8.41-50.803 20.318-8.7 14.545 16.871 5.424 22.082 5.072 5.21-.351 20.644.646 25.013 2.737 4.877 2.339 8.127 7.456 12.989 7.54zM372.25 8.216c.908-.25 2.219-2.608 3.802-2.812 1.394-.197 15.643 2.423 17.629 3.122 42.125 14.853 55.84 71.774 16.561 99.278-10.639 7.456-18.329 6.491-30.243 6.759-3.892.087-.736 3.671-5.924-1.789-3.333-3.511-11.011-11.929-8.699-17.141.33-.743 11.484-8.466 13.065-9.379.871-.493 7.131.779 6.227-2.465-1.426-5.053-15.373 9.214-19.489 2.593-7.465-12.016 10.571-37.89 8.93-43.854-1.64-5.965-13.078-5.773-13.705-12.627-.723-7.953 6.836-16.301 11.83-21.67zm32.034 49.93c-1.099.322-6.801-2.632-7.553-2.36-1.071.389-6.017 15.919-5.833 16.796.08.358 2.436-.65 5.473 3.154.584.734.477 3.676 3.268 3.556.726-.032 11-7.053 11.898-8.56 2.742-4.597 4.058-13.878-2.775-15.385-2.979-.662-4.063 2.672-4.478 2.799"/><path fill="#71B3B0" d="M89.505 127.435c3.19-1.004 11.137-2.411 13.958-.967 9.451 4.793 7.08 8.425 7.767 17.23-3.637 2.642-12.661 13.663-13.583 18.018-15.5 6.615-16.544 27.484-22.868 41.312-6.428 14.065-18.402 37.676-33.38 42.704-4.44 1.496-5.469.131-9.123-1.704-8.682-4.372-10.963-11.202-11.63-20.892-.74-10.562 3.682-21.446 4.371-31.93.486-7.498-.604-20.233-1.575-27.891-1.28-10.071-8.16-28.196-4.057-36.727 1.828-3.816 6.908-6.331 5.882-10.417 1.962-.606 4.213.539 5.068-2.612 2.662 2.242 16.1 8.449 16.435 9.494.069.229-1.652 2.601-1.479 4.492.936 11.167 1.392 17.949-.292 29.645-2.176 15.168-12.988 44.868-3.467 57.054.778.984.678 3.379 3.322 3.768 4.558-5.468 9.886-10.918 13.316-17.273 3.43-6.354 9.3-19.123 11.88-25.885 3.535-9.232 1.868-21.365 6.283-30.204 3.35-6.728 10.144-10.295 13.188-17.23zM400.694 172.498c-15.484-14.525 17.241-24.943 9.148-36.245-6.487-9.043-6.955-1.593-8.718-.479-.145.091-1.795-1.495-3.293-.691-8.404 4.446-18.038 22.154-14.032 32.167 7.071 17.682 28.943 7.047 29.879 16.314.803 7.924-14.347 11.029-18.748 16.52-5.713 7.124-7.837 14.26-3.551 22.852s4.741 5.231 9.394 5.016c1.893-.094 3.01 1.452 6.316-.045 13.703-6.179-1.683-27.606 13.813-36.363 2.222-.048 8.338-.617 8.773-.47 23.38 7.915-3.076 42.018-15.517 50.023-6.956 4.477-20.886 6.267-29.103 5.489-6.096-6.337-15.928-11.437-15.64-22.131.445-16.693 15.207-22.6 23.366-34.383-4.03-3.027-5.008-2.216-7.788 1.027-2.829-.88-6.247-2.736-8.992-3.356-12.983-3.901-11.664-24.951-7.528-35.042 3.505-8.525 10.633-17.487 16.819-24.253 1.798-1.966 1.455-3.559 5.102-4.542 8.774-2.37 24.039 3.064 30.809 9.108 12.781 11.379 2.917 37.997-11.397 41.09-4.528.977-7.612-1.702-9.096-1.622zM121.77 16.737c15.903-3.812 23.951-4.62 38.443 3.856 1.983 1.165 4.847.808 6.245 1.642.799.486-.475 2.716.331 3.782 2.596 3.43 8.458 8.581 9.517 13.007.242.993-.384 13.733-.709 14.363-8.582 7.578-18.287 25.477-30.251 26.95-2.674.317-5.07-1.494-5.529-1.434-3.939-8.625-9.65-16.636-2.266-25.33 3.662-.58 10.454-3.374 15.009-4.253 3.539-.682 8.054 3.186 10.096-5.773 1.563-6.887-11.19-21.212-17.596-13.345-13.013-5.834-21.998 11.805-20.816 23.08.224 2.183 2.563 3.106 2.601 3.333.117.585-1.543 3.378-1.069 5.621 1.132 5.315 4.23 13.71 8.386 17.096-3.326 3.51-.988 4.062-.305 6.556 4.985 18.267 15.713 42.63-12.743 43.172-1.165-3.787-5.154-4.009-7.479-7.911-6.018-10.101 1.527-54.338 1.457-68.88-.069-13.447-7.704-28.562 6.694-35.547z"/><path fill="#143127" d="M32.276 244.012c-5.234 3.941-11.598-1.634-14.887-5.82-8.507-10.805 0-39.221.156-53.158.088-8.545-1.41-19.028-2.5-27.625-2.122-16.693-12.551-34.265 10.208-41.271 1.01 4.086-4.054 6.601-5.882 10.418-4.103 8.531 2.776 26.671 4.056 36.726.972 7.658 2.078 20.394 1.576 27.891-.69 10.484-5.111 21.384-4.37 31.93.681 9.69 2.962 16.536 11.628 20.893zM210.299 134.46c-2.852 5.333-9.362 7.029-12.275 12.311-7.803 14.214 3.615 38.655 2.502 53.613-1.293 17.413-19.867 41.475-1.969 56.637-.901.073-1.933 2.169-5.011.859-9.019-3.84-8.755-13.183-10.879-21.133 4.966-5.434 2.913-16.247 4.592-21.374.938-2.874 3.831-5.79 4.895-9.044 3.612-11.097-3.313-34.536-4.943-46.41 4.148-5.47 2.117-9.245 3.461-12.777 1.735-4.61 12.819-12.916 17.103-13.694 1.158-.207 2.268 1.097 2.555 1.029zM372.25 8.216c-4.994 5.369-12.553 13.716-11.83 21.67.626 6.87 12.09 6.824 13.706 12.627 1.615 5.802-16.38 31.839-8.931 43.854 4.117 6.62 18.063-7.647 19.489-2.593.904 3.244-5.355 1.955-6.227 2.465-1.597.912-12.735 8.636-13.065 9.378-2.296 5.213 5.367 13.615 8.7 17.142-4.776 5.04-16.427-9.687-16.6-12.689-.275-4.746 3.124-8.848 7.507-10.137-22.334-5.824 3.481-39.263 1.364-48.163l-.601-2.2c-2.517-2.3-7.38-2.335-10.36-4.14.293-1.34-1.55-4.335-2.554-5.184 2.166-8.905 6.606-18.71 15.268-22.565 1.732-.761 3.705.645 4.134.535M121.77 16.737c-14.397 6.97-6.747 22.101-6.694 35.548.07 14.542-7.475 58.778-1.457 68.879 2.324 3.902 6.313 4.141 7.479 7.911-1.45.033-1.953 2.282-6.369.188-13.553-6.469-8.195-17.538-11.911-29.229 7.733-15.15 3.445-19.17 3.752-32.939.114-5.002 1.547-10.655 1.454-16.359-.223-13.518-8.696-30.44 9.554-34.65 1.653-.378 3.651.788 4.176.65zM196.73 24.976c-1.583 1.332-3.383 4.473-5.513 6.473-.836.785-2.899-.336-3.724.578-4.639 5.142-6.235 13.22-4.577 19.893 1.159 4.672 7.021 10.58 5.05 15.179-1.656 3.856-10.454 7.545-13.96 12.35-10.822 14.855-6.73 36.013 10.085 43.56-.346-.032-2.376 1.457-4.86 1.011-21.163-3.712-23.15-32.297-10.494-46.975 8.106-9.386 17.829-6.207 6.843-23.642.326-.63.952-13.37.71-14.364 3.239-7.457 11.765-16.326 20.424-14.063zM116.884 143.269c-8.617 7.287-14.406 15.486-11.681 27.52 1.503 6.619 7.771 11.112 4.278 17.464-2.606 4.732-8.953 6.29-12.585 11.074-8.895 11.702-12.027 31.288-.654 42.477 2.268 2.241 5.732 2.988 7.549 4.726 1.302 1.248-.742 3.059-.66 3.352-24.12-6.03-27.336-35.346-11.352-52.422 3.493-3.727 10.411-5.775 11.673-10.727 1.261-4.952-8.11-13.928-5.79-25.017.907-4.355 9.947-15.375 13.584-18.018 1.737-1.26 3.912-2.083 5.654-.429zM229.527 158.503c.286-.068.675-2.611 3.434-2.314 15.282 1.635 17.345 17.472 8.845 28.371-3.759 4.81-18.784 10.98-17.996 15.104 4.307 12.634 18.487 12.756 25.951 22.147 6.641 8.373 1.591 29.035 16.48 33.68-1.463-.016-3.512 2.293-7.3 1-13.987-4.75-10.344-24.523-16.235-33.878-4.902-7.782-14.101-9.183-19.221-14.027-1.241-1.182-6.198-12.943-2.793-14.549 2.029.427 11.45-6.905 13.155-8.908 8.393-9.84 8.766-21.417-4.335-26.643zM288.833 28.347c-1.814 1.981-6.072 7.43-7.282 9.647-7.599 13.82 4.975 22.63 2.203 29.062-1.69 3.903-10.563 7.54-13.849 12.694-8.053 12.64-4.74 26.825 3.932 37.847-.297-.061-1.902 2.187-4.439.724-4.304-2.491-8.643-8.3-10.445-13.032 1.233-3.536-1.064-8.838-.84-11.565.661-7.538 4.92-14.903 10.156-20.036 2.939-2.882 7.499-1.99 8.865-8.322 1.053-4.865-8.713-14.18-3.326-26.326 2.364-5.338 8.383-13.753 15.042-10.709zM89.505 127.435c-3.045 6.935-9.837 10.502-13.188 17.23-4.4 8.84-2.734 20.989-6.283 30.204-2.58 6.746-8.417 19.484-11.88 25.886s-8.758 11.805-13.316 17.273c-2.645-.39-2.56-2.785-3.322-3.768 6.808-8.091 13.582-19.516 17.974-29.306 9.476-21.096 3.085-49.037 30.014-57.503zM71.774 2.602C54.291 11.466 41.69 24.07 33.446 42.401c-4.217 9.38-8.317 21.613 3.321 26.808-1.89-.34-3.461 1.459-7.765-.662-11.585-5.723-7.145-16.3-2.579-26.502C35.538 21.706 50.147 5.89 71.79 2.603zM286.493 202.552c-5.001-2.022-10.021-4.738-10.118-10.699-.336-19.127 23.596-50.474 40.658-57.52 3.028-1.253 5.339-1.184 8.167-1.784-6.579 6.732-14.621 10.051-21.297 17.245-7.946 8.557-18.221 24.642-20.002 36.382-.98 6.511 4.234 10.603 2.575 16.391zM385.276 128.464c-6.186 6.765-13.33 15.726-16.819 24.252-4.137 10.107-5.456 31.142 7.528 35.043-11.152-2.517-14.86-.441-17.182-14.599-2.596-15.892 6.798-33.868 19.469-42.862 2.401-1.698 3.543-4.16 7.004-1.834M384.976 191.115c2.78-3.244 3.759-4.054 7.789-1.028-8.158 11.767-22.921 17.69-23.366 34.383-.288 10.679 9.544 15.778 15.639 22.131-7.087-.681-11.3-1.606-17.419-6.253-.428-.324-4.234-9.459-4.321-10.01-.523-3.324 2.237-16.647 3.809-19.976 3.227-6.798 12.291-12.729 17.868-19.231zM37.757 77.19c5.402 2.603.655 2.041-.708 3.753-5.752 7.3-9.144 10.114-6.205 20.047 2.87 9.722 10.27 15.746 18.812 20.048l-2.918 2.014c-.334-1.045-13.772-7.253-16.434-9.494-12.227-10.341-9.114-35.145 7.452-36.352zM400.694 172.498c-.173-.008-.732 2.061-2.474 2.307-8.14 1.157-9.893-12.3-6.766-17.83 3.128-5.531 19.151-13.733 9.669-21.184 1.763-1.115 2.247-8.564 8.718.478 8.109 11.303-24.631 21.704-9.148 36.245zM420.87 191.558c-15.511 8.757-.126 30.184-13.814 36.363-3.305 1.482-4.406-.047-6.315.046 11.021-9.065.785-18.803 7.358-29.947 4.404-7.439 5.996-6.339 12.755-6.462zM327.223 233.477c7.344-11.883 8.579-22.987-5.587-29.098 1.591-4.937 8.866-.803 11.253.847 12.181 8.406 6.047 33.159-5.667 28.267zM137.551 53.574c-7.4 8.693-1.673 16.704 2.266 25.329-.38.032-.599 4.53-5.655.429-4.156-3.386-7.255-11.765-8.386-17.096-.474-2.242 1.186-5.036 1.069-5.62 3.536-7.397 8.932-2.766 10.722-3.041zM69.744 71.65c15.233 2.808 15.872 17.295 7.722 28.499-4.504-1.486-3.703-3.334-3.14-7.367 1.306-9.426 3.36-12.637-4.582-21.132M304.301 255.337c-3.888 3.001-14.794-3.9-17.984-6.696-2.353-2.084-3.928-7.724-2.991-10.951 7.685 5.231 12.555 13.044 20.959 17.646zM294.536 210.89c-5.161 6.343-10.147 10.375-12.214 18.802-4.082-5.942-4.101-6.99-.042-12.963 4.78-7.02 5.403-5.737 12.272-5.839zM242.875 46.123c-3.061 5.051-13.045-2.422-17.382-4.512.58-.328.404-2.896 2.458-2.323 4.139 1.179 10.544 5.404 14.924 6.835M333.009 46.493c-.282-.028-2.06 1.456-4.914.816a37 37 0 0 1-12.468-5.328c8.259-2.086 10.145-.135 17.382 4.512M227.873 92.868c-5.453 5.042-5.325 8.01-14.408 6.454 3.806-2.91 9.717-8.753 14.408-6.454M323.059 90.641c-.719 2.158-9.572 8.292-10.458 8.398-1.583.204-2.844-1.638-3.949-1.944 2.481-2.113 7.479-6.065 10.273-6.989 1.948-.655 3.846.651 4.134.535"/><path fill="#71B3B0" d="M5.068 267.086c-1.73 3.337-1.783 5.396-5.068 2.612 3.08-2.522 3.97-1.952 5.068-2.612M12.272 263.859c-1.313 3.162-1.568 3.232-4.286 1.213.321-.147.487-1.863 1.686-2.293.96-.345 2.236 1.128 2.6 1.08M366.348 41.754c-.12-.521-.51-2.116-.601-2.2z"/><path fill="#143127" d="M171.42 165.556c-1.513.046-2.404 1.408-6.109.763-5.564-.968-12.53-4.187-17.513-7.03 3.664-1.015 4.245.524 7.355-1.175l16.283 7.459zM154.868 215.114c-2.091 1.439-13.28 12.638-15.174 7.854-.114-.295 1.214-1.928 1.534-2.799 4.104-2.139 8.904-7.387 13.64-5.055"/><path fill="#BADEB6" d="M112.875 251.822c.655 2.396-3.614 3.593-4.27 1.214-.657-2.379 3.613-3.593 4.27-1.214M108.094 249.053c.636.978.38 1.45-.767 1.399z"/><path fill="#143127" d="M404.284 58.146c.415-.127 1.499-3.46 4.478-2.799 6.818 1.506 5.517 10.788 2.775 15.385-.898 1.507-11.172 8.528-11.898 8.56-2.791.12-2.684-2.822-3.268-3.556 7.594-1.262 12.165-10.819 7.913-17.59M152.56 49.32c-1.219-2.098 2.528-3.625 3.135-6.094 1.384-5.607-6.199-11.043-10.635-13.024 6.406-7.867 19.174 6.474 17.596 13.345-2.042 8.96-6.557 5.09-10.096 5.773"/></svg>