<svg width="439" height="271" viewBox="0 0 439 271" fill="none" xmlns="http://www.w3.org/2000/svg">
<path d="M325.2 132.533C327.646 132.012 329.85 130.53 331.273 130.383C332.948 130.215 335.014 131.642 336.883 131.756C338.202 131.846 339.257 129.944 340.377 130.266C352.477 133.855 360.979 154.965 351.99 165.15C346.255 171.645 330.618 170.59 322.861 172.747C318.289 174.028 294.407 183.416 301.235 190.703C302.426 191.978 315.984 190.785 318.439 190.441C321.559 189.998 324.065 187.29 326.793 187.184C329.995 187.05 332.543 189.368 334.891 189.309C335.9 189.289 337.156 187.106 339.491 187.369C344.364 187.921 354.996 193.474 358.857 196.766C363.966 201.112 363.577 205.909 367.123 210.347C365.552 213.659 362.776 226.998 363.314 230.322C356.741 235.026 353.003 242.752 346.726 247.903C336.7 256.127 315.953 261.723 304.301 255.337C295.897 250.734 291.027 242.922 283.342 237.691C282.404 240.918 283.979 246.558 286.333 248.641L275.066 256.038C272.017 257.804 268.6 255.545 266.271 255.524C251.382 250.879 256.433 230.202 249.791 221.844C242.327 212.453 228.147 212.332 223.84 199.697C223.052 195.573 238.077 189.404 241.836 184.593C250.32 173.694 248.273 157.858 232.991 156.223C230.217 155.924 229.843 158.468 229.557 158.536C229.111 158.645 227.252 157.163 225.45 158.099C219.432 161.201 213.531 167.93 211.955 174.752C210.69 180.187 214.025 192.683 220.752 194.088C217.348 195.694 222.304 207.455 223.546 208.636C223.369 219.674 226.424 247.211 215.643 253.92C214.01 254.928 201.399 256.823 198.603 257.039C180.705 241.878 199.295 217.815 200.573 200.402C201.685 185.445 190.267 161.003 198.071 146.789C200.968 141.506 207.494 139.795 210.345 134.478C219.993 132.292 216.126 133.652 223.53 134.314C226.008 134.536 228.146 133.1 230.3 133.564C239.085 135.446 259.883 146.371 261.8 155.906C262.414 158.927 260.111 160.92 260.267 162.827C260.357 164.07 262.326 165.573 262.356 167.491C262.557 180.782 254.685 186.073 246.152 193.976C251.604 198.787 259.602 199.523 265.146 203.244C271.058 207.206 273.58 213.563 277.616 218.715C279.663 221.332 279.824 216.718 282.326 216.763C278.266 222.736 278.286 223.768 282.367 229.726C284.435 221.3 289.421 217.267 294.582 210.924C320.23 210.533 312.723 227.432 327.268 233.527C338.982 238.419 345.1 213.666 332.935 205.26C330.563 203.611 323.272 199.492 321.681 204.414C312.078 200.258 294.404 205.748 286.554 202.587C288.212 196.815 282.983 192.705 283.979 186.196C285.744 174.455 296.019 158.369 303.98 149.814C310.656 142.635 318.698 139.316 325.277 132.568L325.2 132.533Z" fill="#71B3B0"/>
<path d="M103.116 249.882C103.033 249.604 105.077 247.778 103.775 246.529C101.959 244.775 98.5106 244.029 96.2261 241.803C84.8534 230.615 87.985 211.028 96.8806 199.326C100.512 194.542 106.874 193.001 109.466 188.252C112.958 181.9 106.69 177.407 105.188 170.788C102.462 158.755 108.251 150.571 116.869 143.268C120.671 140.053 125.847 137.51 130.68 136.386C133.065 135.83 133.958 138.574 135.71 138.473C137.587 138.378 139.691 135.862 141.908 135.557C157.349 133.383 177.938 137.633 190.626 147.108C189.298 150.656 191.313 154.415 187.165 159.885C183.016 165.355 177.46 165.337 171.39 165.539L155.107 158.08C151.997 159.779 151.416 158.24 147.752 159.255C141.764 160.893 132 162.478 135.35 171.625C139.761 183.636 159.542 174.793 168.527 174.156C175 173.715 190.323 173.258 188.009 183.8C185.886 193.56 169.048 199.779 159.714 201.238C147.464 203.15 132.654 196.609 127.844 211.517C126.452 215.835 132.648 222.048 136.57 223.137C137.565 223.422 139.621 220.936 141.182 220.135C140.862 221.006 139.534 222.639 139.648 222.934C141.542 227.718 152.731 216.534 154.822 215.08C157.06 213.536 160.033 210.575 162.444 210.149C168.042 209.17 182.493 211.477 187.197 215.338C185.535 220.449 187.587 231.279 182.605 236.712C182.276 237.068 174.434 240.863 173.988 241.004C167.659 242.885 158.815 241.258 152.436 242.46C149.12 243.088 146.902 245.293 144.123 245.864C135.945 247.535 124.714 246.158 119.1 253.56M107.311 250.452L112.875 251.822L107.311 250.452Z" fill="#71B3B0"/>
<path d="M242.875 46.1234C238.494 44.7081 232.09 40.467 227.951 39.2877C225.898 38.6987 226.073 41.2825 225.493 41.6113C219.317 45.1086 218.314 37.0787 213.033 44.7693C204.601 57.0716 216.447 58.4272 226.027 58.2507C228.816 58.1956 238.029 56.9887 241.717 56.5222C243.616 56.2833 245.366 53.9608 246.109 53.8967C246.851 53.8326 257.43 60.6554 259.506 61.4707C261.455 67.1914 246.767 77.3683 241.926 78.686C235.11 80.5453 210.387 79.5117 207.123 82.6695C200.658 88.9236 204.321 97.7461 213.481 99.3223C222.641 100.899 222.435 97.9269 227.888 92.8684C234.325 86.903 231.16 90.3066 236.193 89.6735C237.602 89.4937 238.616 87.8314 240.94 87.9653C246.846 88.2882 253.336 90.1017 258.128 93.7248C257.889 96.4515 260.186 101.753 258.968 105.29C257.75 108.827 249.435 117.174 246.184 117.756C244.597 118.041 241.867 116.311 239.528 116.515C218.098 118.459 206.219 125.458 184.123 122.994C167.292 115.447 163.2 94.2882 174.038 79.4345C177.529 74.6282 186.342 70.9404 187.998 67.0843C189.969 62.5013 184.107 56.5773 182.948 51.9056C181.29 45.2317 182.887 37.1546 187.525 32.0121C188.35 31.0983 190.413 32.219 191.249 31.4344C193.379 29.4345 195.179 26.2931 196.762 24.9616C206.828 16.5145 205.193 22.5129 212.516 21.336C215.051 20.9317 216.387 17.609 217.74 17.2335C219.222 16.8153 246.206 20.6206 248.341 21.5352C252.888 23.4891 263.061 28.3298 261.727 34.261C259.351 44.7996 252.491 49.217 242.907 46.1087L242.875 46.1234Z" fill="#71B3B0"/>
<path d="M352.848 30.2464C353.852 31.0953 355.695 34.0902 355.402 35.4299C354.837 38.0296 347.908 47.1453 345.597 48.1874C342.276 49.6843 336.314 46.9117 333.025 46.5102C325.772 41.8616 323.9 39.9282 315.642 41.998C302.85 45.2219 300.937 56.3604 315.129 59.2195C323.412 56.5228 346.183 51.8679 352.754 57.7747C353.862 58.7731 352.497 66.957 351.247 68.625C347.716 73.2525 334.029 77.9024 328.232 78.7436C318.98 80.1098 303.829 76.0817 300.861 85.7089C298.312 93.9859 302.581 95.4447 308.683 97.1125C309.788 97.4184 311.049 99.2608 312.632 99.0564C313.518 98.9502 322.37 92.8168 323.09 90.6586C325.996 89.6909 331.496 86.5504 331.987 86.4592C332.686 86.3287 345.303 87.3156 346.016 87.5883C355.813 91.2372 351.239 106.912 344.514 112.253C341.371 114.756 328.606 113.924 323.292 114.867C312.222 116.814 288.848 124.582 278.882 121.586C276.332 120.814 274.599 117.808 273.82 117.629C265.148 106.607 261.836 92.4058 269.888 79.7809C273.173 74.6275 282.047 70.9906 283.737 67.0877C286.525 60.6566 273.935 51.846 281.534 38.0259C282.76 35.8093 287.002 30.3597 288.816 28.3782C291.455 25.4989 296.451 22.7549 300.35 22.1205C305.2 21.3345 320.541 20.0577 325.328 20.4121C334.557 21.1057 345.591 24.1808 352.815 30.2771L352.848 30.2464Z" fill="#71B3B0"/>
<path d="M106.586 67.096C106.263 80.8642 110.567 84.8845 102.834 100.035C94.1421 117.044 66.8815 129.681 49.6725 121.023C41.1298 116.72 33.7296 110.697 30.8604 100.975C27.9214 91.0411 31.3136 88.227 37.0656 80.9274C38.4123 79.2153 43.175 79.7779 37.7732 77.1747C41.658 76.8939 51.1364 79.1441 54.4518 81.1891C61.3895 85.4696 60.9275 93.1456 69.1646 97.2253C73.3135 99.2907 72.6052 94.3811 74.3258 92.7659C73.7632 96.8147 72.9625 98.6474 77.4663 100.133C85.6168 88.9288 84.9782 74.4263 69.7443 71.6343C66.307 71.0009 59.5964 69.5802 57.0224 69.387C49.1755 68.786 46.3806 70.8695 36.768 69.193C25.1295 63.9984 29.2289 51.7801 33.4468 42.3847C41.6907 24.0363 54.3072 11.4502 71.7751 2.58628C72.1235 2.53712 72.836 -0.20104 76.2278 0.0117916C91.5074 0.954149 104.905 16.4498 97.337 31.4144C91.6742 42.6143 53.6587 39.8236 46.5336 51.7323C37.8343 66.2771 63.4053 57.156 68.6155 56.8044C73.8257 56.4527 89.2604 57.4502 93.6287 59.5412C98.5062 61.88 101.756 66.9974 106.618 67.0813L106.586 67.096Z" fill="#71B3B0"/>
<path d="M372.25 8.21618C373.158 7.96609 374.469 5.60833 376.052 5.40388C377.446 5.20726 391.695 7.82731 393.681 8.52605C435.806 23.3789 449.521 80.2998 410.242 107.804C399.603 115.26 391.913 114.295 379.999 114.563C376.107 114.65 379.263 118.234 374.075 112.774C370.742 109.263 363.064 100.845 365.376 95.6326C365.706 94.8903 376.86 87.167 378.441 86.254C379.312 85.7608 385.572 87.033 384.668 83.7894C383.242 78.7357 369.295 93.0026 365.179 86.3821C357.714 74.3662 375.75 48.4925 374.109 42.5279C372.469 36.5632 361.031 36.755 360.404 29.9008C359.681 21.9475 367.24 13.6 372.234 8.23156L372.25 8.21618ZM404.284 58.1459C403.185 58.4681 397.483 55.5136 396.731 55.7866C395.66 56.1745 390.714 71.7046 390.898 72.5821C390.978 72.9398 393.334 71.932 396.371 75.7359C396.955 76.4699 396.848 79.4116 399.639 79.2923C400.365 79.2596 410.639 72.2385 411.537 70.7321C414.279 66.1345 415.595 56.8536 408.762 55.3471C405.783 54.6854 404.699 58.0191 404.284 58.1459Z" fill="#71B3B0"/>
<path d="M89.5049 127.435C92.6955 126.431 100.642 125.024 103.463 126.468C112.914 131.261 110.543 134.893 111.23 143.698C107.593 146.34 98.5686 157.361 97.6469 161.716C82.1464 168.331 81.1025 189.2 74.779 203.028C68.3512 217.093 56.3767 240.704 41.399 245.732C36.9598 247.228 35.9304 245.863 32.2756 244.028C23.5942 239.656 21.3129 232.826 20.6466 223.136C19.9065 212.574 24.3281 201.69 25.0174 191.206C25.5035 183.708 24.4132 170.973 23.4417 163.315C22.1615 153.244 15.2819 135.119 19.385 126.588C21.2131 122.772 26.2931 120.257 25.267 116.171C27.2289 115.565 29.4797 116.71 30.3354 113.559C32.997 115.801 46.4353 122.008 46.7696 123.053C46.8388 123.282 45.1182 125.654 45.2912 127.545C46.2265 138.712 46.6834 145.494 44.9989 157.19C42.8231 172.358 32.0115 202.058 41.532 214.244C42.3096 215.228 42.2097 217.623 44.8542 218.012C49.412 212.544 54.7404 207.094 58.1701 200.739C61.5998 194.385 67.4698 181.616 70.0505 174.854C73.5845 165.622 71.9181 153.489 76.3331 144.65C79.6839 137.922 86.4767 134.355 89.5213 127.42L89.5049 127.435Z" fill="#71B3B0"/>
<path d="M400.694 172.498C385.21 157.973 417.935 147.555 409.842 136.253C403.355 127.21 402.887 134.66 401.124 135.774C400.979 135.865 399.329 134.279 397.831 135.083C389.427 139.529 379.793 157.237 383.799 167.25C390.87 184.932 412.742 174.297 413.678 183.564C414.481 191.488 399.331 194.593 394.93 200.084C389.217 207.208 387.093 214.344 391.379 222.936C395.665 231.529 396.12 228.167 400.773 227.952C402.666 227.858 403.783 229.404 407.089 227.907C420.792 221.728 405.406 200.301 420.902 191.544C423.124 191.496 429.24 190.927 429.675 191.074C453.055 198.989 426.599 233.092 414.158 241.097C407.202 245.574 393.272 247.364 385.055 246.586C378.959 240.249 369.127 235.149 369.415 224.455C369.86 207.762 384.622 201.855 392.781 190.072C388.751 187.045 387.773 187.856 384.993 191.099C382.164 190.219 378.746 188.363 376.001 187.743C363.018 183.842 364.337 162.792 368.473 152.701C371.978 144.176 379.106 135.214 385.292 128.448C387.09 126.482 386.747 124.889 390.394 123.906C399.168 121.536 414.433 126.97 421.203 133.014C433.984 144.393 424.12 171.011 409.806 174.104C405.278 175.081 402.194 172.402 400.71 172.482L400.694 172.498Z" fill="#71B3B0"/>
<path d="M121.77 16.737C137.673 12.9247 145.721 12.1176 160.213 20.5929C162.196 21.7584 165.06 21.4007 166.458 22.2348C167.257 22.7205 165.983 24.9511 166.789 26.0168C169.385 29.4472 175.247 34.5984 176.306 39.0241C176.548 40.0169 175.922 52.7574 175.597 53.3872C167.015 60.9655 157.31 78.8635 145.346 80.3365C142.672 80.6542 140.276 78.8426 139.817 78.903C135.878 70.2778 130.167 62.2672 137.551 53.5739C141.213 52.9935 148.005 50.1994 152.56 49.32C156.099 48.6376 160.614 52.5061 162.656 43.5469C164.219 36.6597 151.466 22.3354 145.06 30.2021C132.047 24.3677 123.062 42.0074 124.244 53.2814C124.468 55.4648 126.807 56.3883 126.845 56.6154C126.962 57.2001 125.302 59.9935 125.776 62.2361C126.908 67.5506 130.006 75.9459 134.162 79.3318C130.836 82.8411 133.174 83.3943 133.857 85.8876C138.842 104.155 149.57 128.518 121.114 129.06C119.949 125.273 115.96 125.051 113.635 121.149C107.617 111.048 115.162 66.8112 115.092 52.2691C115.023 38.8219 107.388 23.7072 121.786 16.7216L121.77 16.737Z" fill="#71B3B0"/>
<path d="M32.2763 244.012C27.0423 247.953 20.6782 242.378 17.3891 238.192C8.88165 227.387 17.3882 198.971 17.5446 185.034C17.6335 176.489 16.1344 166.006 15.0447 157.409C12.923 140.716 2.49367 123.144 25.2527 116.138C26.263 120.224 21.1987 122.739 19.3706 126.556C15.2676 135.087 22.1465 153.227 23.4273 163.282C24.3988 170.94 25.5048 183.676 25.0031 191.173C24.3137 201.657 19.8915 212.557 20.6322 223.103C21.3142 232.793 23.5949 239.639 32.2612 243.996L32.2763 244.012Z" fill="#143127"/>
<path d="M210.299 134.46C207.447 139.793 200.937 141.489 198.024 146.771C190.221 160.985 201.639 185.426 200.526 200.384C199.233 217.797 180.659 241.859 198.557 257.021C197.656 257.094 196.624 259.19 193.546 257.88C184.527 254.04 184.791 244.697 182.667 236.747C187.633 231.313 185.58 220.5 187.259 215.373C188.197 212.499 191.09 209.583 192.154 206.329C195.766 195.232 188.841 171.793 187.211 159.919C191.359 154.449 189.328 150.674 190.672 147.142C192.407 142.532 203.491 134.226 207.775 133.448C208.933 133.241 210.043 134.545 210.33 134.477L210.299 134.46Z" fill="#143127"/>
<path d="M372.25 8.21618C367.256 13.5846 359.697 21.9322 360.42 29.8854C361.046 36.7557 372.51 36.7099 374.126 42.5125C375.741 48.3151 357.746 74.3515 365.195 86.3667C369.312 92.9872 383.258 78.7203 384.684 83.774C385.588 87.0176 379.329 85.7293 378.457 86.2386C376.86 87.1509 365.722 94.8749 365.392 95.6172C363.096 100.83 370.759 109.232 374.092 112.759C369.316 117.799 357.665 103.072 357.492 100.07C357.217 95.3239 360.616 91.222 364.999 89.9325C342.665 84.1088 368.48 50.67 366.363 41.7703L365.762 39.5704C363.245 37.2705 358.382 37.2348 355.402 35.4299C355.695 34.0902 353.852 31.0953 352.848 30.2464C355.014 21.3408 359.454 11.5365 368.116 7.68105C369.848 6.91961 371.821 8.32618 372.25 8.21618Z" fill="#143127"/>
<path d="M121.77 16.737C107.373 23.7065 115.023 38.838 115.076 52.2845C115.146 66.8266 107.601 111.063 113.619 121.164C115.943 125.066 119.932 125.305 121.098 129.075C119.648 129.108 119.145 131.357 114.729 129.263C101.176 122.794 106.534 111.725 102.818 100.034C110.551 84.8838 106.263 80.8642 106.57 67.0953C106.684 62.093 108.117 56.4398 108.024 50.7361C107.801 37.2178 99.3281 20.2953 117.578 16.0866C119.231 15.7081 121.229 16.8743 121.754 16.7363L121.77 16.737Z" fill="#143127"/>
<path d="M196.73 24.9763C195.147 26.3078 193.347 29.4492 191.217 31.4491C190.381 32.2337 188.318 31.113 187.493 32.0268C182.854 37.1693 181.258 45.2464 182.916 51.9203C184.075 56.592 189.937 62.4999 187.966 67.099C186.31 70.9551 177.512 74.6436 174.006 79.4492C163.184 94.3036 167.276 115.462 184.091 123.009C183.745 122.977 181.715 124.466 179.231 124.02C158.068 120.308 156.081 91.7226 168.737 77.0451C176.843 67.6588 186.566 70.8375 175.58 53.4026C175.906 52.7728 176.532 40.0323 176.29 39.0395C179.529 31.5817 188.055 22.7129 196.714 24.9756L196.73 24.9763Z" fill="#143127"/>
<path d="M116.884 143.269C108.267 150.556 102.478 158.755 105.203 170.789C106.706 177.408 112.974 181.901 109.481 188.253C106.875 192.985 100.528 194.543 96.8963 199.327C88.0007 211.029 84.8692 230.615 96.2418 241.804C98.5099 244.045 101.974 244.792 103.791 246.53C105.093 247.778 103.049 249.589 103.131 249.882C79.0112 243.852 75.7945 214.536 91.7787 197.46C95.2719 193.733 102.19 191.685 103.452 186.733C104.713 181.781 95.3422 172.805 97.6626 161.716C98.5686 157.361 107.609 146.341 111.246 143.698C112.983 142.438 115.158 141.615 116.9 143.269L116.884 143.269Z" fill="#143127"/>
<path d="M229.527 158.503C229.813 158.435 230.202 155.892 232.961 156.189C248.243 157.824 250.306 173.661 241.806 184.56C238.047 189.37 223.022 195.54 223.81 199.664C228.117 212.298 242.297 212.42 249.761 221.811C256.402 230.184 251.352 250.846 266.241 255.491C264.778 255.475 262.729 257.784 258.941 256.491C244.954 251.741 248.597 231.968 242.706 222.613C237.804 214.831 228.605 213.43 223.485 208.586C222.244 207.404 217.287 195.643 220.692 194.037C222.721 194.464 232.142 187.132 233.847 185.129C242.24 175.289 242.613 163.712 229.512 158.486L229.527 158.503Z" fill="#143127"/>
<path d="M288.833 28.3467C287.019 30.3282 282.761 35.7772 281.551 37.9944C273.952 51.8145 286.526 60.6245 283.754 67.0562C282.064 70.9592 273.191 74.596 269.905 79.7495C261.852 92.3904 265.165 106.575 273.837 117.597C273.54 117.536 271.935 119.784 269.398 118.321C265.094 115.83 260.755 110.021 258.953 105.289C260.186 101.753 257.889 96.4515 258.113 93.7241C258.774 86.1857 263.033 78.8208 268.269 73.6883C271.208 70.8061 275.768 71.698 277.134 65.3657C278.187 60.5011 268.421 51.186 273.808 39.0403C276.172 33.7016 282.191 25.2867 288.85 28.3313L288.833 28.3467Z" fill="#143127"/>
<path d="M89.5049 127.435C86.4603 134.37 79.6675 137.937 76.3167 144.665C71.9174 153.505 73.5832 165.654 70.0341 174.869C67.4541 181.615 61.6169 194.353 58.1537 200.755C54.6906 207.156 49.3956 212.56 44.8378 218.028C42.1933 217.638 42.2775 215.243 41.5156 214.26C48.324 206.169 55.0983 194.744 59.49 184.954C68.9664 163.858 62.5751 135.917 89.5042 127.451L89.5049 127.435Z" fill="#143127"/>
<path d="M71.7744 2.60235C54.2909 11.4655 41.6894 24.0685 33.4461 42.4008C29.2289 51.7801 25.1289 64.0144 36.7673 69.2091C34.8765 68.8687 33.3058 70.6677 29.0017 68.5472C17.4168 62.8236 21.857 52.2465 26.4234 42.0452C35.5376 21.7062 50.1466 5.89042 71.7901 2.60304L71.7744 2.60235Z" fill="#143127"/>
<path d="M286.493 202.552C281.492 200.53 276.472 197.814 276.375 191.853C276.039 172.726 299.971 141.379 317.033 134.333C320.061 133.08 322.372 133.149 325.2 132.549C318.621 139.281 310.579 142.6 303.903 149.794C295.957 158.351 285.682 174.436 283.901 186.176C282.921 192.687 288.135 196.779 286.476 202.567L286.493 202.552Z" fill="#143127"/>
<path d="M385.276 128.464C379.09 135.229 371.946 144.19 368.457 152.716C364.32 162.823 363.001 183.858 375.985 187.759C364.833 185.242 361.125 187.318 358.803 173.16C356.207 157.268 365.601 139.292 378.272 130.298C380.673 128.6 381.815 126.138 385.276 128.464Z" fill="#143127"/>
<path d="M384.976 191.115C387.756 187.871 388.735 187.061 392.765 190.087C384.607 201.854 369.844 207.777 369.399 224.47C369.111 235.149 378.943 240.248 385.038 246.601C377.951 245.92 373.738 244.995 367.619 240.348C367.191 240.024 363.385 230.889 363.298 230.338C362.775 227.014 365.535 213.691 367.107 210.362C370.334 203.564 379.398 197.633 384.975 191.131L384.976 191.115Z" fill="#143127"/>
<path d="M37.7568 77.1901C43.1586 79.7933 38.4116 79.2313 37.0492 80.9428C31.2972 88.2424 27.9051 91.0565 30.844 100.99C33.7132 110.712 41.1134 116.736 49.6561 121.038L46.7381 123.052C46.4039 122.007 32.9656 115.799 30.3039 113.558C18.0772 103.217 21.1903 78.4133 37.7562 77.2061L37.7568 77.1901Z" fill="#143127"/>
<path d="M400.694 172.498C400.521 172.49 399.962 174.559 398.22 174.805C390.08 175.962 388.327 162.505 391.454 156.975C394.582 151.444 410.605 143.242 401.123 135.791C402.886 134.676 403.37 127.227 409.841 136.269C417.95 147.572 385.21 157.973 400.693 172.514L400.694 172.498Z" fill="#143127"/>
<path d="M420.87 191.558C405.359 200.315 420.744 221.742 407.056 227.921C403.751 229.403 402.65 227.874 400.741 227.967C411.762 218.902 401.526 209.164 408.099 198.02C412.503 190.581 414.095 191.681 420.854 191.558L420.87 191.558Z" fill="#143127"/>
<path d="M327.223 233.477C334.567 221.594 335.802 210.49 321.636 204.379C323.227 199.442 330.502 203.576 332.889 205.226C345.07 213.632 338.936 238.385 327.222 233.493L327.223 233.477Z" fill="#143127"/>
<path d="M137.551 53.5739C130.151 62.2665 135.878 70.2778 139.817 78.903C139.437 78.9347 139.218 83.4334 134.162 79.3318C130.006 75.9459 126.907 67.5667 125.776 62.2361C125.302 59.9935 126.962 57.2001 126.845 56.6154C130.381 49.2188 135.777 53.8505 137.567 53.5746L137.551 53.5739Z" fill="#143127"/>
<path d="M69.7436 71.6504C84.9768 74.4584 85.6162 88.9449 77.4656 100.149C72.9619 98.6635 73.7632 96.8148 74.3251 92.7819C75.6315 83.3557 77.6863 80.145 69.7436 71.6504Z" fill="#143127"/>
<path d="M304.301 255.337C300.413 258.338 289.507 251.437 286.317 248.641C283.964 246.557 282.389 240.917 283.326 237.69C291.011 242.921 295.881 250.734 304.285 255.336L304.301 255.337Z" fill="#143127"/>
<path d="M294.536 210.89C289.375 217.233 284.389 221.265 282.322 229.692C278.24 223.75 278.221 222.702 282.28 216.729C287.06 209.709 287.683 210.992 294.552 210.89L294.536 210.89Z" fill="#143127"/>
<path d="M242.875 46.1234C239.814 51.174 229.83 43.701 225.493 41.6113C226.073 41.2825 225.897 38.7147 227.951 39.2877C232.09 40.467 238.495 44.692 242.875 46.1234Z" fill="#143127"/>
<path d="M333.009 46.4934C332.727 46.4649 330.949 47.9489 328.095 47.3088C323.665 46.3099 319.441 44.5311 315.627 41.9813C323.886 39.8953 325.772 41.8456 333.009 46.4934Z" fill="#143127"/>
<path d="M227.873 92.8677C222.42 97.9102 222.548 100.878 213.465 99.3216C217.271 96.4129 223.182 90.5694 227.873 92.8677Z" fill="#143127"/>
<path d="M323.059 90.6411C322.34 92.7993 313.487 98.9328 312.601 99.0389C311.018 99.2434 309.757 97.401 308.652 97.095C311.133 94.9817 316.131 91.0303 318.925 90.106C320.873 89.4506 322.771 90.7573 323.059 90.6411Z" fill="#143127"/>
<path d="M5.06834 267.086C3.33893 270.423 3.28453 272.482 0 269.698C3.08084 267.176 3.97019 267.746 5.06834 267.086Z" fill="#71B3B0"/>
<path d="M12.272 263.859C10.9593 267.021 10.7045 267.091 7.98628 265.072C8.30729 264.925 8.47333 263.209 9.6721 262.779C10.6311 262.434 11.9079 263.907 12.272 263.859Z" fill="#71B3B0"/>
<path d="M366.348 41.7535C366.228 41.233 365.838 39.6381 365.747 39.5536L366.348 41.7535Z" fill="#71B3B0"/>
<path d="M171.42 165.556C169.907 165.602 169.016 166.964 165.311 166.319C159.747 165.351 152.781 162.132 147.798 159.289C151.462 158.274 152.043 159.813 155.153 158.114L171.436 165.573L171.42 165.556Z" fill="#143127"/>
<path d="M154.868 215.114C152.777 216.553 141.588 227.752 139.694 222.968C139.58 222.673 140.908 221.04 141.228 220.169C145.332 218.03 150.132 212.782 154.868 215.114Z" fill="#143127"/>
<path d="M112.875 251.822C113.53 254.218 109.261 255.415 108.605 253.036C107.948 250.657 112.218 249.443 112.875 251.822Z" fill="#BADEB6"/>
<path d="M108.094 249.053C108.73 250.031 108.474 250.503 107.327 250.452L108.094 249.053Z" fill="#BADEB6"/>
<path d="M404.284 58.1459C404.699 58.0191 405.783 54.6854 408.762 55.3471C415.58 56.853 414.279 66.1345 411.537 70.7321C410.639 72.2385 400.365 79.2596 399.639 79.2923C396.848 79.4116 396.955 76.4699 396.371 75.7359C403.965 74.4742 408.536 64.9172 404.284 58.1459Z" fill="#143127"/>
<path d="M152.56 49.32C151.341 47.2218 155.088 45.6952 155.695 43.2261C157.079 37.6192 149.496 32.1834 145.06 30.2021C151.466 22.3354 164.234 36.6765 162.656 43.5469C160.614 52.5061 156.099 48.6376 152.56 49.32Z" fill="#143127"/>
</svg>
