<svg xmlns="http://www.w3.org/2000/svg" width="64" height="25" fill="none"><g fill="#fff" clip-path="url(#a)"><path d="m34.645 12.57.098-.08 16.71-3.028c.907.057 1.575.016 2.36-.46l7.991-1.435c-.01 1.387-.678 2.896-1.642 3.877-.108.11-.727.546-.703.65 1.866.8 3.29 2.237 3.738 4.28.955 4.352-1.652 7.755-5.994 8.067l-22.557-.003V12.57m8.33 6.185h11.526c.035 0 .446-.27.501-.323.603-.587.682-1.595.198-2.277-.114-.16-.58-.597-.757-.597H42.975zM20.422 8.455c-.429-.613-.836-1.13-1.495-1.51-1.965-1.131-7.195-1.126-9.153 0-.685.394-1.498 1.424-.64 2.068.6.45 2.195.611 2.958.685 4.372.42 11.326.094 14.947 2.794.178.133.546.404.657.58.026.042.067.102-.002.12-.169-.002-.323.067-.484.102-3.824.835-7.75 1.359-11.6 2.034-4.163-.396-12.32-.136-14.87-4.176-1.172-1.857-.848-4.727.248-6.56C3.736-.006 11.931-.136 16.609.048c5.057.199 10.723.91 12.213 6.677.111.43.288 1.103.306 1.532.003.068-.022.197-.084.197H20.42M39.748 9.402c.058-.02.128.059.147.059h7.948c.01.088-.157.088-.223.1-5.289 1.004-10.604 1.868-15.885 2.913l-.375-.083V.788l.202-.092h21.064c1.289.167 2.57.53 3.625 1.315 1.723 1.282 2.545 3.35 2.3 5.498l-8.098 1.534-.059-.115c.49-.653.497-1.467-.03-2.101-.093-.112-.5-.445-.614-.445h-9.914l-.088.088v2.932M3.556 18.224l8.556-1.53c.5 1.016 1.612 1.61 2.67 1.893 1.85.496 6.883.518 8.338-.897.379-.37.724-1.125.258-1.563-.68-.64-2.806-.633-3.72-.745-.107-.013-.095.019-.087-.118l11.412-2.076c.116-.012.162.051.235.12 1.192 1.118 1.299 3.438 1.017 4.939-1.339 7.108-12.555 7.001-17.973 6.608-2.375-.173-4.683-.446-6.826-1.577a7.58 7.58 0 0 1-3.879-5.053zM8.66 16.565c-.083.153-.355.185-.515.22a104 104 0 0 1-7.449 1.363c-.138.02-.282.03-.42.008-.03-.267-.135-.539-.174-.8-.019-.119-.126-.792.023-.792h8.534"/></g><defs><clipPath id="a"><path fill="#fff" d="M0 0h63.393v25H0z"/></clipPath></defs></svg>