<svg width="276" height="219" viewBox="0 0 276 219" fill="none" xmlns="http://www.w3.org/2000/svg">
<g clip-path="url(#clip0_286_549)">
<path d="M163.507 45.989C163.12 46.3869 163.012 45.9605 162.967 45.5853C162.791 44.181 162.916 41.8784 162.955 40.3832C163.098 35.0333 163.643 29.4048 163.234 24.0264C161.767 4.5825 138.898 18.1023 129.49 23.293C101.766 38.5923 75.2701 57.7406 52.5827 79.8225C48.8934 83.4157 44.7948 87.458 41.5432 91.432C39.1158 94.4055 33.7893 100.881 40.429 102.359C45.0563 103.388 53.5718 102.473 58.5857 102.206C78.6638 101.131 98.7589 98.3113 118.888 100.028C147.846 102.496 174.376 112.536 157.737 146.79C150.904 160.856 141.018 167.383 128.285 175.462C104.256 190.698 73.6101 202.694 46.3865 211.171C36.0745 214.384 15.4621 220.507 5.1786 218.67C1.72803 218.056 0.44899 215.344 0.0965427 212.018C-0.818682 203.377 4.62719 193.416 7.98112 185.718C8.49274 185.661 8.2085 186.269 8.11755 186.537C7.49224 188.447 6.58839 190.334 5.9915 192.324C-2.8083 221.695 20.1007 215.401 38.4735 209.528C54.9418 204.264 72.6267 196.998 88.3845 189.857C108.69 180.647 145.344 162.334 154.741 141.332C160.284 128.938 156.168 116.561 143.775 110.893C123.18 101.478 85.6843 106.265 62.9742 107.129C55.9935 107.396 36.7283 108.352 31.2597 104.713C28.8949 103.144 30.5832 99.2892 31.578 97.2879C37.5128 85.3714 57.6022 68.4006 68.1529 59.6395C88.3504 42.8734 114.812 23.202 138.585 12.1895C148.408 7.63554 163.314 0.892701 166.929 16.2432C169.123 25.5558 166.531 37.0857 163.513 45.989H163.507Z" fill="white"/>
<path d="M224.634 87.7421C245.65 80.8571 274.692 89.4136 275.943 114.884C276.733 131.008 268.957 142.936 259.281 154.733C232.882 186.917 192.464 204.696 151.507 209.181L165.36 205.162C195.449 195.138 223.832 183.722 245.786 160.066C259.088 145.733 280.582 117.192 261.345 99.471C248.105 87.2759 224.838 90.4824 209.086 95.3832C223.906 84.9165 237.276 72.2381 248.367 57.8485C255.569 48.5074 268.616 29.416 263.244 17.3403C259.412 8.72698 240.545 5.87293 232.143 5.05424C218.261 3.70112 202.941 4.31514 189.031 5.60003C184.739 5.99801 180.453 6.82807 176.172 7.2033C175.865 7.23173 175.194 7.45346 175.251 6.96452C183.886 3.84894 192.987 1.95003 202.128 0.960778C216.829 -0.631122 234.712 -0.329799 249.242 2.41054C287.71 9.65938 268.104 43.1746 251.789 62.0954C243.626 71.5616 234.155 79.6916 224.634 87.7421Z" fill="white"/>
<path d="M172.784 175.615C172.29 175.615 172.494 174.444 172.517 174.12C172.847 169.532 174.023 164.085 174.785 159.469C179.93 128.273 186.353 96.7875 193.112 65.9103C195.21 56.3362 197.228 46.455 199.661 36.9832C199.928 35.9541 200.048 34.3679 200.889 33.7141C193.345 81.3631 183.437 128.614 172.784 175.621V175.615Z" fill="white"/>
</g>
<defs>
<clipPath id="clip0_286_549">
<rect width="276" height="219" fill="white"/>
</clipPath>
</defs>
</svg>
