<svg xmlns="http://www.w3.org/2000/svg" width="276" height="219" fill="none"><g fill="#fff" clip-path="url(#a)"><path d="M163.507 45.989c-.387.398-.495-.028-.54-.404-.176-1.404-.051-3.707-.012-5.202.143-5.35.688-10.978.279-16.357-1.467-19.443-24.336-5.924-33.744-.733-27.724 15.3-54.22 34.448-76.907 56.53-3.69 3.593-7.788 7.635-11.04 11.609-2.427 2.974-7.754 9.449-1.114 10.927 4.627 1.029 13.143.114 18.157-.153 20.078-1.075 40.173-3.895 60.302-2.178 28.958 2.468 55.488 12.508 38.849 46.762-6.833 14.066-16.719 20.593-29.452 28.672-24.029 15.236-54.675 27.232-81.898 35.709-10.312 3.213-30.925 9.336-41.208 7.499-3.451-.614-4.73-3.326-5.082-6.652-.916-8.641 4.53-18.602 7.884-26.3.512-.057.228.551.137.819-.626 1.91-1.53 3.797-2.126 5.787-8.8 29.371 14.109 23.077 32.481 17.204 16.469-5.264 34.154-12.53 49.912-19.671 20.305-9.21 56.959-27.523 66.356-48.525 5.543-12.394 1.427-24.771-10.966-30.439-20.595-9.415-58.09-4.628-80.8-3.764-6.982.267-26.247 1.223-31.715-2.416-2.365-1.569-.677-5.424.318-7.425C37.513 85.37 57.602 68.4 68.153 59.64c20.197-16.767 46.659-36.438 70.432-47.45 9.823-4.554 24.729-11.297 28.344 4.053 2.194 9.313-.398 20.843-3.416 29.746z"/><path d="M224.634 87.742c21.016-6.885 50.058 1.672 51.309 27.142.79 16.124-6.986 28.052-16.662 39.849-26.399 32.184-66.817 49.963-107.774 54.448l13.853-4.019c30.089-10.024 58.472-21.44 80.426-45.096 13.302-14.333 34.796-42.874 15.559-60.595-13.24-12.195-36.507-8.989-52.259-4.088 14.82-10.466 28.19-23.145 39.281-37.534 7.202-9.342 20.249-28.433 14.877-40.509-3.832-8.613-22.699-11.467-31.101-12.286-13.882-1.353-29.202-.739-43.112.546-4.292.398-8.578 1.228-12.859 1.603-.307.029-.978.25-.921-.238 8.635-3.116 17.736-5.015 26.877-6.004 14.701-1.592 32.584-1.29 47.114 1.45 38.468 7.248 18.862 40.764 2.547 59.684-8.163 9.467-17.634 17.597-27.155 25.647"/><path d="M172.784 175.615c-.494 0-.29-1.171-.267-1.495.33-4.588 1.506-10.035 2.268-14.651 5.145-31.196 11.568-62.681 18.327-93.559 2.098-9.574 4.116-19.455 6.549-28.927.267-1.029.387-2.615 1.228-3.269-7.544 47.65-17.452 94.9-28.105 141.907z"/></g><defs><clipPath id="a"><path fill="#fff" d="M0 0h276v219H0z"/></clipPath></defs></svg>